<svg width="121" height="120" viewBox="0 0 121 120" xmlns="http://www.w3.org/2000/svg">
    <g fill="none" fill-rule="evenodd">
        <path fill="#111" d="M0 0h121v120H0z"/>
        <text fill-rule="nonzero" font-family="HyundaiSansHeadJP-Medium, Hyundai Sans Head JP" font-size="14" font-weight="500" fill="#006DC6">
                    <tspan x="13.555" y="93">SCC w/S&amp;G</tspan>
                </text>
        <path d="M16 10h88v72H16z"/>
        <g fill="#FFF">
            <path d="m60.455 49.4.346.002 1.726.002H65.965c.751 0 1.383-.002 1.894-.004 2.002 1.94 3.64 4.365 4.915 7.276l1.101.001a1.125 1.125 0 1 1 0 2.25h-.292c.23.896.43 2.056.5 3.462.03.887.025 3.151-.9 4.696l-.001 2.415a1.5 1.5 0 0 1-1.5 1.5h-1.546a1.5 1.5 0 0 1-1.5-1.5v-.47c-1.677.152-3.68.167-5.659.166l-.84-.001c-.622-.001-1.236-.002-1.832 0-.1.004-.2.003-.303.002l-.308.003c-.595-.007-1.21-.006-1.831-.005l-.84.001c-1.979.001-3.982-.014-5.66-.167v.471a1.5 1.5 0 0 1-1.5 1.5h-1.545a1.5 1.5 0 0 1-1.5-1.5v-2.415c-.926-1.545-.93-3.81-.9-4.696.069-1.406.27-2.566.499-3.463l-.292.001a1.125 1.125 0 0 1 0-2.25h1.101c1.275-2.912 2.913-5.338 4.915-7.277l1.894.004H57.473l1.726-.002.346-.002h.91zm10.465 9.165-.076.01-4.41.974a.5.5 0 0 0-.324.237l-.036.075-.42 1.118a.5.5 0 0 0 .552.67l.087-.024 4.518-1.654a.5.5 0 0 0 .253-.205l.038-.075.224-.544a.422.422 0 0 0-.332-.579l-.074-.003zm-21.84 0-.074.003a.422.422 0 0 0-.332.58l.224.543.038.075a.5.5 0 0 0 .253.205l4.518 1.654.087.023a.5.5 0 0 0 .552-.669l-.42-1.118-.036-.075a.5.5 0 0 0-.324-.237l-4.41-.975-.076-.01zm10.125-7.137H58.077l-.19.001h-3.344l-.303-.001c-.393 0-.743-.002-1.05-.003-1.252 1.095-2.45 2.846-3.595 5.251L60 56.677h10.405c-1.145-2.406-2.343-4.157-3.595-5.252l-1.05.003H64.916l-.142.001h-3.64l-.34-.001h-1.589zM60.455 18l-.001.001h2.226l.289-.001c.818.802 1.489 1.804 2.012 3.006l.01.026h.45a.469.469 0 1 1 0 .938l-.116-.002c.095.373.178.857.206 1.444.013.37.011 1.312-.37 1.956V26.5a.5.5 0 0 1-.5.5h-.872a.5.5 0 0 1-.5-.5v-.321c-.851.078-1.907.07-2.897.069l.001.002-.284-.002h-.218l-.284.002c-.99-.001-2.045.007-2.897-.071l.001.321a.5.5 0 0 1-.5.5h-.871a.5.5 0 0 1-.5-.5l-.001-1.132c-.381-.644-.383-1.586-.37-1.956.028-.587.11-1.07.206-1.444l-.115.002a.469.469 0 0 1 0-.938h.449l.01-.026c.523-1.202 1.194-2.204 2.012-3.006h.29l.08.001h2.144V18h.91zm3.796 3.82-.056.003-1.657.37a.5.5 0 0 0-.324.239l-.036.076-.09.244a.244.244 0 0 0 .25.328l.063-.015 1.662-.616a.5.5 0 0 0 .252-.206l.037-.074.044-.108a.176.176 0 0 0-.093-.227l-.052-.014zm-8.502 0-.052.014a.176.176 0 0 0-.093.227l.044.108.037.074a.5.5 0 0 0 .252.206l1.662.616.064.015a.244.244 0 0 0 .25-.328l-.091-.244-.036-.076a.5.5 0 0 0-.324-.238l-1.657-.37-.056-.004zm4.08-2.975H57.6l-.138-.001-.154.145c-.46.46-.902 1.14-1.326 2.043h8.034c-.424-.902-.866-1.583-1.326-2.043l-.154-.145h-.453l-.087.001H59.828zM65.375 39 67 45H53l1.586-6h10.789zm-1.083-4 .813 3H54.85l.793-3h8.649zm-.811-3 .541 2h-8.115l.53-2h7.044z"/>
        </g>
    </g>
</svg>
