<svg width="121" height="120" viewBox="0 0 121 120" xmlns="http://www.w3.org/2000/svg">
    <g fill="none" fill-rule="evenodd">
        <path fill="#191919" d="M0 0h121v120H0z"/>
        <text opacity=".15" fill-rule="nonzero" font-family="HyundaiSansHeadJP-Medium, Hyundai Sans Head JP" font-size="14" font-weight="500" fill="#FFF">
                    <tspan x="43.99" y="93">BCA</tspan>
                </text>
        <g opacity=".15">
            <path d="M17 10h88v72H17z"/>
            <path d="M83.512 52.453c-1.21.14-3.572.58-7.087 1.317l-.411.086v10.098l.41.086c3.516.738 5.878 1.177 7.088 1.317 1.61-1.404 2.388-3.555 2.335-6.452.053-2.897-.725-5.048-2.335-6.452zm7.492 10.395-.67.007-.084.008a.5.5 0 0 0-.336.228l-1.64 2.64-.031.066a.317.317 0 0 0 .313.418l.375-.014.083-.01a.5.5 0 0 0 .281-.17l2.05-2.456.049-.073a.437.437 0 0 0-.39-.644zm-2.448-11.253a.317.317 0 0 0-.313.418l.031.066 1.64 2.64a.5.5 0 0 0 .336.228l.084.008.67.007a.437.437 0 0 0 .39-.644l-.05-.073-2.049-2.456a.5.5 0 0 0-.28-.17l-.084-.01-.375-.014zm-28.633.39c-.61.175-1.052.447-1.326.819-.123.165-.36.492-.408 1.125-.033.433-.051 1.562-.054 3.389V60.492c.003 1.827.02 2.956.054 3.389.049.633.285.96.408 1.126.274.37.716.644 1.326.817V51.986zM93 60.358a8.079 8.079 0 0 1-1.972 5.297 6.612 6.612 0 0 1-4.991 2.283l-3.117.004-1.107 1.663a.888.888 0 0 1-1.238.241.91.91 0 0 1-.244-1.254l.431-.648-19.649.02a5.408 5.408 0 0 1-3.304-1.124 3.746 3.746 0 0 1-1.46-2.968V53.94c0-1.163.539-2.26 1.46-2.968a5.408 5.408 0 0 1 3.304-1.123l19.65.02-.432-.649a.91.91 0 0 1 .244-1.254.886.886 0 0 1 1.238.24l1.107 1.664 3.117.004a6.612 6.612 0 0 1 4.991 2.283A8.079 8.079 0 0 1 93 57.454l-.002 1.451zM43.99 37.038l-.67.007-.084.008a.5.5 0 0 0-.285.16l-.05.068-1.64 2.64-.032.066a.317.317 0 0 0 .25.414l.063.004.375-.015.083-.01a.5.5 0 0 0 .222-.109l.06-.06 2.048-2.456.05-.073a.437.437 0 0 0-.39-.644zM29 24.051l4.748.006-.43-.648a.91.91 0 0 1 .243-1.254.886.886 0 0 1 1.238.24l1.107 1.664 3.117.004a6.612 6.612 0 0 1 4.991 2.283 8.079 8.079 0 0 1 1.972 5.297l-.001 1.452.001 1.451a8.079 8.079 0 0 1-1.972 5.298 6.612 6.612 0 0 1-4.705 2.277l-.286.006-3.117.004-1.107 1.663-.006.01a.886.886 0 0 1-1.232.23.91.91 0 0 1-.3-1.155l.056-.098.431-.648-4.748.004v-3.993l.41.086c3.516.738 5.879 1.177 7.088 1.317 1.543-1.346 2.322-3.377 2.338-6.094l-.003-.358c.053-2.897-.725-5.048-2.335-6.452-1.21.14-3.572.58-7.087 1.317l-.411.086v-3.995zm12.542 1.734a.317.317 0 0 0-.313.418l.031.066 1.64 2.64a.5.5 0 0 0 .336.228l.084.008.67.007a.437.437 0 0 0 .39-.644l-.05-.073-2.049-2.456a.5.5 0 0 0-.28-.17l-.084-.01-.375-.014z" fill="#FFF"/>
            <g stroke="#FFF" stroke-width="1.5">
                <path d="M59.03 38.97c-7.406 0-13.409 6.085-13.409 13.592"/>
                <path d="M59.03 42.594c-5.43 0-9.833 4.463-9.833 9.968M59.03 46.219c-3.456 0-6.258 2.84-6.258 6.343"/>
            </g>
        </g>
    </g>
</svg>
