<svg width="121" height="120" viewBox="0 0 121 120" xmlns="http://www.w3.org/2000/svg">
    <g fill="none" fill-rule="evenodd">
        <path fill="#111" d="M0 0h121v120H0z"/>
        <text fill-rule="nonzero" font-family="HyundaiSansHeadJP-Medium, Hyundai Sans Head JP" font-size="14" font-weight="500" fill="#006DC6">
                    <tspan x="40.952" y="93">DAW</tspan>
                </text>
        <path d="M17 10h88v72H17z"/>
        <path d="M74.9 43.539a28.1 28.1 0 0 1-.015 2.104c4.143-.354 5.742 1.466 4.799 5.46-.913 3.076-4 5.648-9.262 7.716-1.098 1.425-2.359 2.605-3.739 3.476H81V64H41v-1.705h14.317c-4.85-3.063-8.23-9.927-8.23-17.903 0-.286.004-.57.013-.853h27.8zm-.035 3.716-.1.009c-.354 3.395-1.325 6.507-2.747 9.103 3.088-1.589 5.102-3.417 6.045-5.484.808-2.656-.258-3.866-3.198-3.628z" fill="#FFF"/>
        <path d="M57.934 29.897c-1.38.386-2.143 1.187-2.29 2.402-.139 1.15 1.224 2.275 2.353 3.274.662.586 1.244 1.128 1.396 1.607.411 1.294.027 2.882-2.296 4.41M64.363 26c-1.725.45-2.68 1.384-2.863 2.802-.174 1.342 1.53 2.654 2.941 3.82.828.683 1.555 1.316 1.745 1.874.514 1.51.034 3.362-2.87 5.145" stroke="#FFF" stroke-width="1.5"/>
    </g>
</svg>
