<svg width="121" height="120" viewBox="0 0 121 120" xmlns="http://www.w3.org/2000/svg">
    <g fill="none" fill-rule="evenodd">
        <path fill="#191919" d="M0 0h121v120H0z"/>
        <text opacity=".15" fill-rule="nonzero" font-family="HyundaiSansHeadJP-Medium, Hyundai Sans Head JP" font-size="14" font-weight="500" fill="#FFF">
                    <tspan x="46.041" y="93">LFA</tspan>
                </text>
        <g opacity=".15">
            <path d="M17 10h88v72H17z"/>
            <g fill="#FFF">
                <path d="m61.585 31.393.344.002 1.713.002H67.054c.747 0 1.374-.002 1.881-.004 1.987 1.937 3.614 4.36 4.88 7.268H74.9a1.124 1.124 0 1 1 0 2.248l-.282-.001c.227.895.426 2.054.495 3.458.03.886.026 3.147-.893 4.69l-.001 2.41a1.5 1.5 0 0 1-1.5 1.5h-1.512a1.5 1.5 0 0 1-1.5-1.5v-.468c-1.329.122-2.863.156-4.427.165l-.772.002h-.837l-.83-.002h-.818l-.586.001c-.1.004-.2.003-.3.002l-.307.003v-.005l-.585-.001h-.819l-.83.001h-.836l-.773-.001c-1.563-.009-3.098-.043-4.427-.165v.469a1.5 1.5 0 0 1-1.5 1.5H49.55a1.5 1.5 0 0 1-1.5-1.5l-.002-2.41c-.918-1.544-.922-3.805-.893-4.691.07-1.404.268-2.563.496-3.458h-.283a1.124 1.124 0 0 1 0-2.247h1.086c1.266-2.908 2.892-5.33 4.88-7.268.507.002 1.134.004 1.88.004H58.626l1.712-.002.345-.002h.902zm10.385 9.154-.076.01-4.371.972a.5.5 0 0 0-.324.238l-.036.075-.416 1.114a.5.5 0 0 0 .554.668l.087-.023 4.476-1.65a.5.5 0 0 0 .252-.205l.038-.075.222-.542a.422.422 0 0 0-.332-.578l-.074-.004zm-21.672 0-.074.004a.422.422 0 0 0-.333.578l.222.542.038.075a.5.5 0 0 0 .252.205l4.477 1.65.087.023a.5.5 0 0 0 .554-.668l-.417-1.114-.036-.075a.5.5 0 0 0-.324-.238l-4.37-.972-.076-.01zm10.77-7.129-1.457.001-1.477.001H55.98l-.306-.001c-.497 0-.93-.002-1.3-.003-1.243 1.094-2.433 2.843-3.57 5.245h20.659c-1.137-2.402-2.326-4.15-3.57-5.245l-1.3.003h-.305l-1.164.001h-2.467l-1.457-.002zM35.836 44.38v.012h4.113l-4.325 13.197H30l5.836-13.209zm7.353-9.876-2.946 8.989h-4.015l3.972-8.989h2.989zM45.976 26l-2.492 7.605h-2.886L43.958 26h2.018zM82.051 44.392l4.325 13.197H92l-5.831-13.197h-4.118zm-3.24-9.888 2.946 8.989h4.015L81.8 34.504h-2.989zM76.024 26l2.492 7.605h2.886L78.042 26h-2.018z"/>
            </g>
            <g stroke="#FFF" stroke-width="1.5">
                <path d="m49.06 60.057 2.811 3.143-2.81 2.8m-9.134-2.972H51.87M72.73 60.057 69.92 63.2l2.81 2.8m9.134-2.972H69.92"/>
            </g>
        </g>
    </g>
</svg>
