<svg width="121" height="120" viewBox="0 0 121 120" xmlns="http://www.w3.org/2000/svg">
    <g fill="none" fill-rule="evenodd">
        <path fill="#191919" d="M0 0h121v120H0z"/>
        <text opacity=".15" fill-rule="nonzero" font-family="HyundaiSansHeadJP-Medium, Hyundai Sans Head JP" font-size="14" font-weight="500" fill="#FFF">
                    <tspan x="43.668" y="93">HBA</tspan>
                </text>
        <g opacity=".15">
            <path d="M17 10h88v72H17z"/>
            <path d="m55.283 49.81.902-1.176 2.785-.002a5.633 5.633 0 0 0 5.63-5.643l-.001-.904h-5.97c.044 2.1-.606 3.659-1.95 4.676-1.049-.105-3.136-.444-6.26-1.017v-3.659H36.985V47.1c-.51-.126-.879-.323-1.108-.592-.102-.12-.3-.357-.34-.816-.028-.313-.043-1.128-.045-2.446v-1.16H34v3.468c0 .917.458 1.773 1.22 2.282.795.531 1.73.815 2.686.814l16.477-.014-.337.44a.64.64 0 0 0 .18.939.81.81 0 0 0 1.057-.204zm5.607-2.426a.246.246 0 0 1-.208-.389l1.315-1.838a.5.5 0 0 1 .402-.21l.535-.004a.332.332 0 0 1 .242.563L61.53 47.22a.5.5 0 0 1-.344.154zM55.224 32.55c.01.013.019.026.027.04l.933 1.488 2.513.003a5.502 5.502 0 0 1 4.257 2.024 7.31 7.31 0 0 1 1.646 4.628l-.001 1.351h-5.97c.043-2.567-.606-4.472-1.95-5.716-1.05.129-3.136.543-6.26 1.243v4.473H36.985v-6.13c-.51.154-.879.395-1.108.724-.102.147-.3.436-.34.998-.027.378-.042 1.36-.045 2.947V42.085H34v-4.459c0-.996.448-1.94 1.22-2.57a4.41 4.41 0 0 1 2.794-.996l16.369.017-.37-.588a.818.818 0 0 1 .213-1.097.714.714 0 0 1 .998.159zm5.666 3.057a.272.272 0 0 0-.247.41l1.358 2.32a.5.5 0 0 0 .427.248l.506.005a.379.379 0 0 0 .301-.612l-1.705-2.17a.5.5 0 0 0-.372-.19zM83.574 50.444l-.003.004-.896 1.338-2.537.003a5.366 5.366 0 0 0-4.039 1.84 6.492 6.492 0 0 0-1.599 4.273l.001 1.162-.001 1.162a6.492 6.492 0 0 0 1.6 4.274 5.366 5.366 0 0 0 3.765 1.832l.273.007 2.537.003.896 1.338a.723.723 0 0 0 1.006.195.731.731 0 0 0 .25-.918l-.053-.093-.349-.52 3.575.003v-3.16l-.114.025c-1.41.293-2.59.527-3.538.702l-.494.09c-.707.125-1.26.21-1.659.256-1.243-1.077-1.875-2.699-1.896-4.867l.002-.33c-.043-2.333.588-4.065 1.894-5.196.974.112 2.871.462 5.69 1.049l.115.024v-3.16l-3.575.005.349-.52a.731.731 0 0 0-.197-1.013.722.722 0 0 0-1.003.192zM76.118 62.24l.493.005.084.008a.5.5 0 0 1 .285.159l.05.068 1.301 2.08.029.062a.256.256 0 0 1-.205.327l-.05.003-.264-.01-.083-.01a.5.5 0 0 1-.221-.109l-.06-.06-1.632-1.943-.045-.068a.353.353 0 0 1 .318-.512zm1.986-9.064a.256.256 0 0 1 .256.33l-.029.062-1.3 2.08a.5.5 0 0 1-.336.227l-.084.008-.493.005a.353.353 0 0 1-.318-.512l.045-.068 1.633-1.944a.5.5 0 0 1 .28-.168l.083-.01.263-.01z" fill="#FFF"/>
            <path d="M64.6 34.888 73.572 26c4.453 3.818 6.695 9.18 6.727 16.085-2.3.003-6.827.003-13.581 0M63.82 52.371l4.878 4.907c2.968-2.545 4.463-6.119 4.484-10.722-1.534-.002-3.78-.002-6.742 0" stroke="#FFF" stroke-width="1.5"/>
        </g>
    </g>
</svg>
