<svg width="121" height="120" viewBox="0 0 121 120" xmlns="http://www.w3.org/2000/svg" xmlns:xlink="http://www.w3.org/1999/xlink">
    <defs>
        <path id="4h4tjvpcya" d="M0 0h15.25v23.206H0z"/>
    </defs>
    <g fill="none" fill-rule="evenodd">
        <path fill="#191919" d="M0 0h121v120H0z"/>
        <text opacity=".15" fill-rule="nonzero" font-family="HyundaiSansHeadJP-Medium, Hyundai Sans Head JP" font-size="14" font-weight="500" fill="#FFF">
                    <tspan x="44.718" y="93">FCA</tspan>
                </text>
        <g opacity=".15">
            <path d="M17 10h88v72H17z"/>
            <path d="m53.123 58.099-2.794 3.12L53.123 64m11.373-2.95H50.329" stroke="#FFF" stroke-width="1.5"/>
            <path d="M83.757 48.85c0 2.466 2.008 4.464 4.485 4.464 2.477 0 4.485-1.998 4.485-4.463M55.051 48.85c0 2.466 2.008 4.464 4.485 4.464 2.478 0 4.486-1.998 4.486-4.463" stroke="#FFF"/>
            <path d="M59.536 47.066c.991 0 1.795.799 1.795 1.785a1.79 1.79 0 0 1-1.795 1.785c-.99 0-1.794-.8-1.794-1.785a1.79 1.79 0 0 1 1.794-1.785zm28.706 0c.99 0 1.794.799 1.794 1.785a1.79 1.79 0 0 1-1.794 1.785c-.99 0-1.794-.8-1.794-1.785a1.79 1.79 0 0 1 1.794-1.785zM73.475 31.744l11.775.073c3.581.186 5.975.906 7.182 2.162.49.593 1.548 2.692 3.172 6.296l-.094-.005c.312.57.49 1.224.49 1.92v5.21a1.5 1.5 0 0 1-1.356 1.493l-.144.007h-2.221v-.05c0-2.217-1.807-4.016-4.037-4.016s-4.037 1.799-4.037 4.017v.049H63.574v-.05c0-2.217-1.807-4.016-4.037-4.016-2.229 0-4.036 1.799-4.036 4.017v.048h-2.88a4 4 0 0 1-4-4v-2.71a4 4 0 0 1 3.66-3.986l-.328-.015c6.036-.843 10.317-2.142 12.843-3.897 2.525-1.755 5.419-2.604 8.68-2.547zm-17.83 7.617-.085.007-3.65.68a.5.5 0 0 0-.335.23l-.038.075-.416 1.039a.5.5 0 0 0 .542.68l.088-.022 3.752-1.31a.5.5 0 0 0 .255-.201l.039-.074.224-.52a.419.419 0 0 0-.294-.575l-.082-.01zm21.532-5.568c.053 1.287.055 2.802.006 4.545l3.684.006h1.036l2.085.002h.693l1.577-.001c1.958-.002 3.33-.008 4.115-.016-.12-1.063-.31-2.507-1.372-3.424-.545-.47-1.19-.634-2.308-.809-2.092-.326-6.952-.252-9.516-.303zm-7.151.452c-1.518.47-3.668 1.736-6.45 3.8l-.367.273h13.188c.07-1.08.07-2.584 0-4.513-2.166-.014-4.333-.109-6.371.44z" fill="#FFF"/>
            <g stroke="#FFF">
                <path d="m43.216 36.07 3.255 2.119M45.884 33.33l2.343 3.327M49.855 31.742l.474 4.267"/>
            </g>
            <g transform="translate(25 31)">
                <mask id="aldjgwbzxb" fill="#fff">
                    <use xlink:href="#4h4tjvpcya"/>
                </mask>
                <g mask="url(#aldjgwbzxb)">
                    <path d="M2.243 17.85c0 2.466 2.008 4.464 4.485 4.464 2.477 0 4.485-1.998 4.485-4.463M-26.463 17.85c0 2.466 2.008 4.464 4.485 4.464 2.477 0 4.486-1.998 4.486-4.463" stroke="#FFF"/>
                    <path d="M-21.978 16.066c.991 0 1.794.799 1.794 1.785a1.79 1.79 0 0 1-1.794 1.785c-.99 0-1.794-.8-1.794-1.785a1.79 1.79 0 0 1 1.794-1.785zm28.706 0c.99 0 1.794.799 1.794 1.785a1.79 1.79 0 0 1-1.794 1.785c-.991 0-1.794-.8-1.794-1.785a1.79 1.79 0 0 1 1.794-1.785zM-8.04.744 3.736.817c3.581.186 5.975.906 7.182 2.162.49.593 1.548 2.692 3.172 6.296l-.094-.005c.312.57.49 1.224.49 1.92v5.21a1.5 1.5 0 0 1-1.356 1.493l-.144.007h-2.222v-.05c0-2.217-1.807-4.016-4.036-4.016-2.23 0-4.037 1.799-4.037 4.017v.049H-17.94v-.05c0-2.217-1.807-4.016-4.037-4.016s-4.036 1.799-4.036 4.017v.048h-2.88a4 4 0 0 1-4-4v-2.71a4 4 0 0 1 3.66-3.986l-.328-.015c6.036-.843 10.317-2.142 12.842-3.897C-14.194 1.536-11.3.687-8.039.744zm-17.83 7.617-.085.007-3.65.68a.5.5 0 0 0-.335.23l-.038.075-.416 1.039a.5.5 0 0 0 .542.68l.087-.022 3.752-1.31a.5.5 0 0 0 .255-.201l.04-.074.224-.52a.419.419 0 0 0-.295-.575l-.081-.01zm21.532-5.568c.053 1.287.054 2.802.006 4.545l3.684.006H.388l2.086.002h.693l1.577-.001c1.957-.002 3.329-.008 4.115-.016-.12-1.063-.31-2.507-1.372-3.424-.545-.47-1.19-.634-2.308-.809-2.092-.326-6.952-.252-9.516-.303zm-7.152.452c-1.517.47-3.667 1.736-6.45 3.8l-.366.273h13.188c.07-1.08.07-2.584 0-4.513-2.167-.014-4.333-.109-6.372.44z" fill="#FFF"/>
                </g>
            </g>
        </g>
    </g>
</svg>
