<svg width="120" height="120" viewBox="0 0 120 120" xmlns="http://www.w3.org/2000/svg">
    <g fill="none" fill-rule="evenodd">
        <path fill="#111" d="M0 0h120v120H0z"/>
        <text fill-rule="nonzero" font-family="HyundaiSansHeadJP-Medium, Hyundai Sans Head JP" font-size="14" font-weight="500" fill="#006DC6">
                    <tspan x="37.243" y="93">RCAA</tspan>
                </text>
        <path d="M16 10h88v72H16z"/>
        <path d="M65.535 68.004c.857-.09 2.522-.367 4.996-.834l.377-.071v-6.922l-.36-.076c-2.483-.528-4.154-.841-5.013-.942-1.154 1.019-1.712 2.58-1.674 4.682-.038 1.87.52 3.257 1.674 4.163zm-5.37-7.025.402-.003.084-.008a.5.5 0 0 0 .337-.231l1.136-1.853.025-.056a.229.229 0 0 0-.229-.292l-.203.008-.085.01a.5.5 0 0 0-.282.172l-1.43 1.737-.04.061a.316.316 0 0 0 .286.455zm1.755 7.579a.215.215 0 0 0 .211-.286l-.026-.052-1.114-1.615a.5.5 0 0 0-.311-.206l-.096-.01-.418-.003a.292.292 0 0 0-.257.436l.04.055 1.402 1.513a.5.5 0 0 0 .27.15l.08.01.22.008zm20.518-.252c.437-.113.754-.289.95-.528a1.22 1.22 0 0 0 .293-.727c.023-.274.036-.982.038-2.124v-2.248c-.002-1.32-.015-2.136-.038-2.449-.035-.46-.205-.696-.292-.817-.197-.27-.514-.467-.95-.594l-.001 5.022v4.465zm-23.702-5.53a5.888 5.888 0 0 1 1.413-3.833 4.733 4.733 0 0 1 3.593-1.657l2.217-.003.795-1.21a.63.63 0 0 1 .885-.172.662.662 0 0 1 .177.908l-.311.472 14.074-.013c.86 0 1.696.286 2.374.815A2.718 2.718 0 0 1 85 60.226v6.735c0 .798-.391 1.545-1.047 2a4.067 4.067 0 0 1-2.32.724l-14.127-.013.294.399a.573.573 0 0 1-.16.828.679.679 0 0 1-.902-.174l-.779-1.054-2.354-.003a4.802 4.802 0 0 1-3.456-1.473 5.058 5.058 0 0 1-1.413-3.512v-.842zM45.523 26.64c.09.858.367 2.523.834 4.997l.071.377h6.921l.077-.36c.527-2.483.841-4.154.942-5.013-1.02-1.154-2.58-1.712-4.683-1.674-1.869-.038-3.256.52-4.162 1.674zm7.024-5.368.004.4.008.085a.5.5 0 0 0 .23.337l1.854 1.136.056.025a.229.229 0 0 0 .292-.229l-.008-.204-.01-.084a.5.5 0 0 0-.172-.282l-1.737-1.431-.061-.04a.316.316 0 0 0-.456.287zm-7.578 1.754a.215.215 0 0 0 .286.211l.051-.026 1.616-1.114a.5.5 0 0 0 .206-.312l.01-.096.003-.417a.292.292 0 0 0-.437-.257l-.054.04-1.513 1.402a.5.5 0 0 0-.151.27l-.01.08-.007.22zm.252 20.518c.112.437.288.754.528.95.107.088.318.258.726.293.274.023.982.036 2.125.038H50.848c1.32-.002 2.136-.015 2.448-.038.46-.035.697-.205.818-.293.27-.196.467-.513.593-.95h-9.486zm5.53-23.702a5.888 5.888 0 0 1 3.832 1.413 4.733 4.733 0 0 1 1.658 3.592l.002 2.218 1.21.795a.63.63 0 0 1 .172.885.662.662 0 0 1-.907.177l-.473-.311.014 14.074c0 .86-.286 1.696-.815 2.374a2.718 2.718 0 0 1-2.144 1.047h-6.734a2.432 2.432 0 0 1-2-1.047 4.067 4.067 0 0 1-.724-2.32l.013-14.127-.4.294a.573.573 0 0 1-.828-.16.679.679 0 0 1 .175-.902l1.054-.78.002-2.353a4.802 4.802 0 0 1 1.473-3.456 5.058 5.058 0 0 1 3.513-1.413h.841z" fill="#FFF"/>
        <g stroke="#FFF" stroke-width="1.5">
            <path d="M52.396 55.789c5.502 0 9.962-4.407 9.962-9.842"/>
            <path d="M52.396 53.105c4.002 0 7.246-3.205 7.246-7.158M52.396 50.42c2.501 0 4.529-2.002 4.529-4.473"/>
        </g>
        <g stroke="#FFF" stroke-width="1.5">
            <path d="M46.962 55.789c-5.502 0-9.962-4.407-9.962-9.842"/>
            <path d="M46.962 53.105c-4.001 0-7.245-3.205-7.245-7.158M46.962 50.42c-2.5 0-4.528-2.002-4.528-4.473"/>
        </g>
    </g>
</svg>
