<svg width="121" height="120" viewBox="0 0 121 120" xmlns="http://www.w3.org/2000/svg">
    <g fill="none" fill-rule="evenodd">
        <path fill="#111" d="M0 0h121v120H0z"/>
        <text fill-rule="nonzero" font-family="HyundaiSansHeadJP-Medium, Hyundai Sans Head JP" font-size="14" font-weight="500" fill="#006DC6">
                    <tspan x="39.72" y="93">RSPA</tspan>
                </text>
        <path d="M17 10h88v72H17z"/>
        <path d="m41.953 52.076 1.184.903.003 2.788c.002 1.5.601 2.94 1.666 3.997a5.678 5.678 0 0 0 4.008 1.65l.915-.002V55.43c-2.114.044-3.682-.607-4.706-1.954.105-1.051.447-3.142 1.023-6.274h3.683V33.74H44.68c.127-.511.326-.881.597-1.11.121-.103.36-.301.821-.342.399-.035 1.608-.05 3.63-.044v-1.496h-3.496c-.92 0-1.78.458-2.292 1.222a4.827 4.827 0 0 0-.819 2.694l.013 16.51-.443-.338a.644.644 0 0 0-.943.183.81.81 0 0 0 .204 1.058zm2.443 5.62a.247.247 0 0 1 .39-.21l1.852 1.319a.5.5 0 0 1 .21.403l.004.536a.334.334 0 0 1-.565.244l-1.727-1.653a.5.5 0 0 1-.154-.344zm14.931-5.68a.714.714 0 0 1-.042.028l-1.5.936-.002 2.511a5.513 5.513 0 0 1-2.037 4.273 7.368 7.368 0 0 1-4.653 1.65l-1.364-.002V55.43c2.583.044 4.5-.607 5.752-1.954-.13-1.051-.546-3.142-1.25-6.274h-4.502V33.74h6.17c-.156-.511-.399-.881-.73-1.11-.148-.103-.439-.301-1.004-.342-.402-.029-1.481-.044-3.237-.045H49.729v-1.495h4.49c1.002 0 1.95.448 2.585 1.222a4.412 4.412 0 0 1 1 2.803l-.016 16.402.593-.37a.824.824 0 0 1 1.103.213.714.714 0 0 1-.157.998zm-3.08 5.68a.274.274 0 0 0-.411-.249l-2.338 1.363a.5.5 0 0 0-.248.427l-.005.507a.38.38 0 0 0 .615.303l2.184-1.71a.5.5 0 0 0 .192-.373zM64.502 41.284l1.184.903.003 2.788c.001 1.5.6 2.94 1.666 3.997a5.678 5.678 0 0 0 4.008 1.65l.914-.001v-5.984c-2.113.045-3.682-.607-4.706-1.954.106-1.05.447-3.142 1.024-6.273h3.682V22.947H67.23c.127-.511.326-.881.597-1.11.12-.103.359-.3.821-.341.398-.036 1.608-.05 3.63-.045v-1.496h-3.496c-.92 0-1.78.459-2.292 1.222a4.827 4.827 0 0 0-.82 2.695l.014 16.51-.443-.338a.644.644 0 0 0-.944.182.81.81 0 0 0 .205 1.058zm2.443 5.62a.247.247 0 0 1 .39-.21l1.852 1.32a.5.5 0 0 1 .21.402l.004.536a.334.334 0 0 1-.565.244l-1.727-1.652a.5.5 0 0 1-.154-.345zm14.93-5.68a.714.714 0 0 1-.042.028l-1.499.936-.003 2.511a5.513 5.513 0 0 1-2.036 4.273 7.368 7.368 0 0 1-4.653 1.65l-1.365-.001v-5.984c2.584.044 4.502-.607 5.753-1.954-.13-1.05-.546-3.142-1.25-6.273h-4.503V22.947h6.17c-.155-.511-.398-.881-.729-1.11-.148-.103-.439-.3-1.004-.342-.402-.028-1.481-.044-3.237-.045H72.9l-.623.001v-1.496h4.492c1 0 1.949.449 2.583 1.222a4.412 4.412 0 0 1 1.001 2.804l-.017 16.401.594-.37a.824.824 0 0 1 1.102.214.714.714 0 0 1-.156.998zm-3.08 5.68a.274.274 0 0 0-.41-.248l-2.338 1.362a.5.5 0 0 0-.248.427l-.005.507a.38.38 0 0 0 .615.304l2.184-1.71a.5.5 0 0 0 .192-.374z" fill="#FFF"/>
        <path stroke="#FFF" stroke-linecap="square" d="M61 21.8v33.274M83.098 21.8v33.274M38.902 21.8v33.274"/>
        <g stroke="#FFF" stroke-width="1.5">
            <path d="M44.607 67.775c3.238-3.633 8.48-3.64 11.708-.017"/>
            <path d="M46.2 69.564c2.356-2.642 6.168-2.647 8.516-.012M47.795 71.354c1.472-1.652 3.855-1.655 5.322-.008"/>
        </g>
        <path d="m48.378 27.199 1.903 1.804 1.694-1.804m-1.798-4.961v7.216" stroke="#FFF" stroke-width="1.5"/>
    </g>
</svg>
