<svg width="61" height="32" viewBox="0 0 61 32" xmlns="http://www.w3.org/2000/svg">
    <g fill="none" fill-rule="evenodd">
        <path d="M0 32h61V0H0z"/>
        <path d="M19.947 3.854c.65-.125 1.079-.125 1.232.04.091.105.118.276-.001.49a3.008 3.008 0 0 1-.272.374c-5.504 6.493-9.694 16.07-10.887 18.836a6.61 6.61 0 0 1-.251.502c-.108.195-.257.358-.521.373-.147.01-.346-.026-.65-.21-3.653-2.254-5.824-5.064-5.824-8.11 0-5.502 7.067-10.23 17.174-12.295m4.972 4.165c.519-1.183 1.413-3.716 3.465-4.723.623-.305 1.388-.45 2.076-.47.154-.006.264 0 .308 0 5.746 0 11.093.783 15.573 2.13.033.01.137.05.17.062.412.135.625.322.625.555 0 .202-.11.354-.257.498a5.134 5.134 0 0 1-.284.246c-1.032.852-4.145 3.07-10.007 5.28-2.059.777-4.63 1.74-7.321 2.301-1.585.33-7.443 1.208-4.348-5.879m27.238-.116c.11-.194.259-.355.525-.372.147-.01.347.025.648.212 3.656 2.252 5.822 5.061 5.822 8.107 0 5.501-7.068 10.227-17.171 12.296-.65.127-1.08.123-1.228-.04-.101-.103-.128-.278 0-.494a2.57 2.57 0 0 1 .27-.375c5.503-6.493 9.694-16.065 10.885-18.83.09-.191.18-.38.25-.504M37.005 23.977c-.519 1.188-1.413 3.72-3.466 4.728-.62.301-1.388.45-2.077.47-.154.004-.264 0-.31 0-5.747 0-11.093-.786-15.569-2.129-.038-.01-.141-.051-.173-.063-.412-.135-.623-.325-.623-.554 0-.207.106-.357.255-.5.061-.063.158-.14.281-.247 1.036-.85 4.148-3.073 10.012-5.282 2.058-.774 4.628-1.739 7.324-2.298 1.58-.328 7.44-1.211 4.346 5.875M30.5 32C47.346 32 61 24.837 61 15.998 61 7.163 47.346 0 30.5 0 13.655 0 0 7.163 0 15.998 0 24.838 13.655 32 30.5 32" fill="#FFF"/>
    </g>
</svg>
