<?xml version="1.0" encoding="iso-8859-1"?>
<!-- Generator: Adobe Illustrator 26.0.2, SVG Export Plug-In . SVG Version: 6.00 Build 0)  -->
<svg version="1.1" id="Layer_1" xmlns="http://www.w3.org/2000/svg" xmlns:xlink="http://www.w3.org/1999/xlink" x="0px" y="0px"
	 viewBox="0 0 45.77 23.436" style="enable-background:new 0 0 45.77 23.436;" xml:space="preserve">
<g>
	<g>
		<g>
			<g>
				<path style="fill:#FFFFFF;" d="M22.885,23.436c12.639,0,22.885-5.246,22.885-11.719C45.77,5.246,35.525,0,22.885,0
					C10.246,0,0,5.246,0,11.717C0,18.19,10.246,23.436,22.885,23.436z M27.192,17.686c-0.381,0.886-1.038,2.776-2.548,3.528
					c-0.455,0.225-1.021,0.336-1.527,0.351c-0.114,0.003-0.194,0-0.228,0c-4.225,0-8.155-0.586-11.445-1.588
					c-0.028-0.008-0.104-0.038-0.127-0.047c-0.303-0.101-0.458-0.243-0.458-0.414c0-0.154,0.078-0.266,0.188-0.372
					c0.045-0.047,0.116-0.106,0.207-0.185c0.761-0.633,3.049-2.293,7.36-3.942c1.512-0.577,3.403-1.297,5.384-1.715
					C25.158,13.056,29.467,12.397,27.192,17.686z M38.754,5.874c0.081-0.142,0.19-0.261,0.386-0.274
					c0.108-0.008,0.255,0.018,0.476,0.156c2.688,1.654,4.28,3.719,4.28,5.956c0,4.042-5.196,7.515-12.624,9.034
					c-0.478,0.093-0.794,0.091-0.903-0.03c-0.074-0.075-0.094-0.204,0-0.363c0.047-0.082,0.1-0.157,0.198-0.275
					c4.047-4.77,7.127-11.803,8.003-13.834C38.637,6.104,38.703,5.965,38.754,5.874z M18.645,5.724
					c0.382-0.883,1.039-2.773,2.548-3.525c0.458-0.227,1.021-0.336,1.527-0.35c0.113-0.004,0.194,0,0.227,0
					c4.225,0,8.156,0.585,11.451,1.59c0.024,0.007,0.101,0.037,0.124,0.046c0.304,0.101,0.46,0.24,0.46,0.414
					c0,0.15-0.081,0.264-0.189,0.371c-0.047,0.046-0.116,0.106-0.208,0.183c-0.76,0.636-3.048,2.291-7.358,3.941
					c-1.514,0.579-3.404,1.298-5.383,1.717C20.677,10.357,16.37,11.012,18.645,5.724z M14.495,2.682
					c0.478-0.092,0.793-0.091,0.906,0.03c0.067,0.077,0.087,0.203-0.001,0.36c-0.052,0.085-0.105,0.16-0.2,0.274
					c-4.047,4.77-7.128,11.805-8.004,13.838c-0.065,0.14-0.132,0.279-0.186,0.369c-0.079,0.143-0.189,0.263-0.383,0.274
					c-0.108,0.006-0.254-0.019-0.478-0.155c-2.685-1.656-4.282-3.72-4.282-5.958C1.867,7.673,7.064,4.199,14.495,2.682z"/>
			</g>
		</g>
	</g>
</g>
</svg>
