<svg width="66" height="59" viewBox="0 0 66 59" xmlns="http://www.w3.org/2000/svg">
    <defs>
        <filter id="a">
            <feColorMatrix in="SourceGraphic" values="0 0 0 0 0.025531 0 0 0 0 0.575673 0 0 0 0 0.916136 0 0 0 1.000000 0"/>
        </filter>
        <filter id="b">
            <feColorMatrix in="SourceGraphic" values="0 0 0 0 1.000000 0 0 0 0 1.000000 0 0 0 0 1.000000 0 0 0 1.000000 0"/>
        </filter>
    </defs>
    <g transform="translate(-647 -817)" filter="url(#a)" fill="none" fill-rule="evenodd">
        <g transform="translate(630 806)" filter="url(#b)">
            <path d="M72.388 50.124c-1.355.155-4.003.64-7.945 1.456l-.443.092v11.142l.443.093c3.942.816 6.59 1.302 7.945 1.456 1.8-1.549 2.672-3.922 2.612-7.12.06-3.197-.811-5.57-2.612-7.119zm8.382 11.471-.785.008-.084.008a.5.5 0 0 0-.334.225l-1.848 2.935-.032.064a.352.352 0 0 0 .344.476l.447-.018.083-.01a.5.5 0 0 0 .28-.166l2.303-2.724.05-.072a.485.485 0 0 0-.424-.726zm-2.74-12.418a.352.352 0 0 0-.343.475l.032.064 1.848 2.935a.5.5 0 0 0 .334.226l.084.008.785.007a.485.485 0 0 0 .425-.726l-.05-.072-2.305-2.723a.5.5 0 0 0-.28-.167l-.082-.01-.447-.017zm-32.03.43c-.683.193-1.177.494-1.484.903-.137.183-.402.544-.456 1.243-.034.438-.054 1.523-.06 3.257V59.477c.006 1.734.026 2.82.06 3.257.054.7.319 1.06.456 1.243.307.41.801.71 1.484.902V49.608zm37.002 9.219a8.876 8.876 0 0 1-2.206 5.865 7.406 7.406 0 0 1-5.558 2.52l-3.513.004-1.234 1.831a1 1 0 0 1-1.658-1.118l.478-.71-21.99.02A6.085 6.085 0 0 1 43.635 66 4.135 4.135 0 0 1 42 62.706V51.781c0-1.293.605-2.511 1.635-3.293a6.085 6.085 0 0 1 3.686-1.24l21.99.022-.478-.71a1 1 0 0 1 1.658-1.12l1.234 1.832 3.513.004a7.406 7.406 0 0 1 5.558 2.52 8.876 8.876 0 0 1 2.206 5.866L83 57.244zM33.77 27.595l-.785.008-.084.008a.5.5 0 0 0-.284.158l-.05.067-1.848 2.935-.032.064a.352.352 0 0 0 .273.471l.07.005.448-.018.083-.01a.5.5 0 0 0 .22-.107l.06-.06 2.303-2.723.05-.072a.485.485 0 0 0-.424-.726zM17 13.264l5.311.006-.478-.71a1 1 0 1 1 1.658-1.12l1.234 1.832 3.513.004a7.406 7.406 0 0 1 5.558 2.52 8.876 8.876 0 0 1 2.206 5.866L36 23.244l.002 1.582a8.876 8.876 0 0 1-2.206 5.865 7.406 7.406 0 0 1-5.268 2.514l-.29.006-3.513.004-1.234 1.831a1 1 0 0 1-1.718-1.018l.06-.1.478-.71-5.311.004v-4.407l.443.092c3.942.816 6.59 1.302 7.945 1.456 1.732-1.49 2.603-3.74 2.615-6.754L28 23.244c.06-3.198-.811-5.57-2.612-7.12-1.355.155-4.003.64-7.945 1.456l-.443.092v-4.408zm14.03 1.913a.352.352 0 0 0-.343.475l.032.064 1.848 2.935a.5.5 0 0 0 .334.226l.084.008.785.007a.485.485 0 0 0 .425-.726l-.05-.072-2.305-2.723a.5.5 0 0 0-.28-.167l-.082-.01-.447-.017z" fill="#0793EA"/>
            <g stroke="#0793EA" stroke-width="1.5">
                <path d="M45 35.244c-8.284 0-15 6.715-15 15"/>
                <path d="M45 39.244c-6.075 0-11 4.925-11 11M45 43.244a7 7 0 0 0-7 7"/>
            </g>
        </g>
    </g>
</svg>
