<svg width="69" height="47" viewBox="0 0 69 47" xmlns="http://www.w3.org/2000/svg">
    <defs>
        <filter id="a">
            <feColorMatrix in="SourceGraphic" values="0 0 0 0 1.000000 0 0 0 0 1.000000 0 0 0 0 1.000000 0 0 0 1.000000 0"/>
        </filter>
    </defs>
    <g transform="translate(-16 -17)" filter="url(#a)" fill="none" fill-rule="evenodd">
        <g fill="#FFF">
            <path d="M51 23c.25.002.494.002.733.002l.545.001h.837l.202.001h1.344l.181.001h2.54l.136-.001h.518L59.145 23c2.202 2.154 4.004 4.85 5.406 8.084l1.199.002a1.25 1.25 0 1 1 0 2.5l-.308-.002c.252.997.472 2.286.549 3.848.033.986.028 3.502-.99 5.219L65 45.5a1.5 1.5 0 0 1-1.5 1.5h-2a1.5 1.5 0 0 1-1.5-1.5l.001-.69c-1.658.152-3.606.182-5.563.185h-.875l-1.302-.002h-.853l-.572.002c-.11.004-.222.003-.334.002l-.338.003-.001-.005-.57-.002h-.854l-1.302.002h-.875c-1.957-.003-3.905-.033-5.563-.185l.001.69a1.5 1.5 0 0 1-1.5 1.5h-2a1.5 1.5 0 0 1-1.5-1.5v-2.849c-1.02-1.717-1.024-4.233-.991-5.22.077-1.561.297-2.85.55-3.847l-.309.002a1.25 1.25 0 0 1 0-2.5l1.199-.002c1.402-3.235 3.204-5.93 5.406-8.084l1.11.003h.517l.136.001h1.028l.157.001h2.88l.202-.001h.837l.545-.002h.732L50 23h1zm11.505 10.184-.084.011-4.87 1.088a.5.5 0 0 0-.323.237l-.036.076-.515 1.382a.5.5 0 0 0 .555.667l.087-.023 5.094-1.885a.5.5 0 0 0 .252-.206l.038-.074.255-.627a.47.47 0 0 0-.37-.642l-.083-.004zm-24.01 0-.082.004a.47.47 0 0 0-.371.642l.255.627.038.074a.5.5 0 0 0 .252.206l5.094 1.885.087.023a.5.5 0 0 0 .555-.667l-.515-1.382-.036-.076a.5.5 0 0 0-.324-.237l-4.87-1.088-.083-.01zm11.747-7.931H49.04l-.202.001-1.704.001h-1.016l-1.345-.001h-.136l-.518-.001h-.302l-.807-.003c-1.377 1.217-2.695 3.163-3.955 5.835h22.892c-1.26-2.672-2.578-4.618-3.955-5.835l-.807.002-.302.001h-.518l-.136.001-1.345.001h-1.017l-1.703-.001h-.202l-.837-.001h-.882zM22.467 37.449v.012h4.557l-4.792 14.681H16l6.467-14.693zm8.148-10.988-3.264 10h-4.449l4.401-10h3.312zM33.704 17l-2.763 8.461h-3.198L31.468 17h2.236zM73.68 37.461l4.791 14.681h6.233l-6.462-14.681H73.68zm-3.591-11 3.264 10h4.449l-4.401-10h-3.312zM67 17l2.763 8.461h3.198L69.236 17H67z"/>
        </g>
        <g stroke="#FFF" stroke-width="1.5">
            <path d="m37.121 56 3.115 3.497-3.115 3.115M27 59.306h13.236M63.35 56l-3.114 3.497 3.115 3.115m10.12-3.306H60.237"/>
        </g>
    </g>
</svg>
