<svg width="46" height="45" viewBox="0 0 46 45" xmlns="http://www.w3.org/2000/svg">
    <defs>
        <filter id="a">
            <feColorMatrix in="SourceGraphic" values="0 0 0 0 1.000000 0 0 0 0 1.000000 0 0 0 0 1.000000 0 0 0 1.000000 0"/>
        </filter>
    </defs>
    <g transform="translate(-27 -17)" filter="url(#a)" fill="none" fill-rule="evenodd">
        <path d="M65.985 37.538a33.618 33.618 0 0 1-.017 2.47c4.764-.417 6.603 1.718 5.518 6.403-1.049 3.608-4.598 6.624-10.647 9.049-1.264 1.672-2.715 3.055-4.302 4.078H73v2H27v-2h16.463C37.886 55.945 34 47.894 34 38.538c0-.334.005-.668.015-1h31.97zm0 4.356-.156.015c-.406 3.983-1.524 7.634-3.16 10.68 3.55-1.865 5.869-4.01 6.953-6.436.926-3.103-.287-4.523-3.637-4.259z" fill="#FFF"/>
        <path d="M46.793 22.439c-1.62.432-2.518 1.33-2.69 2.695-.164 1.29 1.437 2.554 2.764 3.675.777.657 1.46 1.266 1.64 1.803.483 1.453.032 3.234-2.697 4.95M53.883 18c-1.976.527-3.07 1.623-3.28 3.287-.2 1.573 1.752 3.113 3.37 4.48.948.801 1.781 1.543 1.999 2.198.59 1.772.04 3.944-3.288 6.035" stroke="#FFF" stroke-width="1.5"/>
    </g>
</svg>
