<svg width="80" height="35" viewBox="0 0 80 35" xmlns="http://www.w3.org/2000/svg" xmlns:xlink="http://www.w3.org/1999/xlink">
    <defs>
        <filter id="a">
            <feColorMatrix in="SourceGraphic" values="0 0 0 0 1.000000 0 0 0 0 1.000000 0 0 0 0 1.000000 0 0 0 1.000000 0"/>
        </filter>
        <path id="b" d="M0 0h17v26H0z"/>
    </defs>
    <g transform="translate(-10 -23)" filter="url(#a)" fill="none" fill-rule="evenodd">
        <path d="m41.35 50-3.114 3.497 3.115 3.115m12.677-3.306H38.236" stroke="#FFF" stroke-width="1.5"/>
        <path d="M75.5 43a5 5 0 1 0 10 0M43.5 43a5 5 0 1 0 10 0" stroke="#FFF"/>
        <path d="M48.5 41a2 2 0 1 1 0 4 2 2 0 0 1 0-4zm32 0a2 2 0 1 1 0 4 2 2 0 0 1 0-4zM64.039 23.834l13.126.081c3.992.209 6.66 1.016 8.006 2.422.517.63 1.6 2.767 3.248 6.413.46.653.73 1.447.73 2.305v6.5a1.5 1.5 0 0 1-1.356 1.493l-.145.007-2.65-.001L85 43a4.5 4.5 0 0 0-4.288-4.495L80.5 38.5a4.5 4.5 0 0 0-4.5 4.554l-23.002-.001L53 43a4.5 4.5 0 0 0-4.288-4.495L48.5 38.5a4.5 4.5 0 0 0-4.5 4.553h-3.669a4 4 0 0 1-4-4v-4a4 4 0 0 1 3.813-3.995l-.098-.005c6.728-.944 11.5-2.4 14.316-4.366 2.815-1.966 6.04-2.917 9.677-2.853zm-19.89 8.534-.085.008-4.097.767a.5.5 0 0 0-.335.23l-.037.076-.524 1.316a.5.5 0 0 0 .542.68l.088-.023 4.326-1.519a.5.5 0 0 0 .255-.2l.039-.074.26-.607a.47.47 0 0 0-.35-.647l-.083-.007zm24.016-6.24c.059 1.443.061 3.14.007 5.094l4.574.006h.589l1.228.002h2.9l.946-.001a521 521 0 0 0 4.466-.018c-.133-1.19-.346-2.808-1.53-3.836-.606-.527-1.325-.71-2.571-.906-2.333-.366-7.75-.282-10.609-.34zm-7.972.507c-1.697.528-4.104 1.955-7.221 4.28l-.378.284h14.702c.077-1.21.077-2.895 0-5.057-2.415-.015-4.83-.121-7.103.493z" fill="#FFF"/>
        <g stroke="#FFF">
            <path d="m30.306 28.68 3.63 2.374M33.28 25.61l2.612 3.728M37.707 23.83l.53 4.78"/>
        </g>
        <g transform="translate(10 23)">
            <mask id="c" fill="#fff">
                <use xlink:href="#b"/>
            </mask>
            <g mask="url(#c)">
                <path d="M2.5 20a5 5 0 1 0 10 0" stroke="#FFF"/>
                <path d="M-24.5 18a2 2 0 1 1 0 4 2 2 0 0 1 0-4zm32 0a2 2 0 1 1 0 4 2 2 0 0 1 0-4zM-8.961.834 4.165.915c3.992.209 6.66 1.016 8.006 2.422.517.63 1.6 2.767 3.248 6.413.46.653.73 1.447.73 2.305v6.5a1.5 1.5 0 0 1-1.356 1.493l-.145.007-2.65-.001L12 20a4.5 4.5 0 0 0-4.288-4.495L7.5 15.5A4.5 4.5 0 0 0 3 20.054l-23.002-.001L-20 20a4.5 4.5 0 0 0-4.288-4.495l-.212-.005a4.5 4.5 0 0 0-4.5 4.553h-3.669a4 4 0 0 1-4-4v-4a4 4 0 0 1 3.813-3.995l-.098-.005c6.728-.944 11.5-2.4 14.316-4.366C-15.823 1.721-12.598.77-8.961.834zm-19.89 8.534-.085.008-4.097.767a.5.5 0 0 0-.335.23l-.037.076-.524 1.316a.5.5 0 0 0 .542.68l.088-.023 4.326-1.519a.5.5 0 0 0 .255-.2l.039-.074.26-.607a.47.47 0 0 0-.35-.647l-.083-.007zm24.016-6.24c.059 1.443.061 3.14.007 5.094l4.574.006h.589l1.228.002h2.9l.946-.001a521 521 0 0 0 4.466-.018c-.133-1.19-.346-2.808-1.53-3.836-.606-.527-1.325-.71-2.571-.906-2.333-.366-7.75-.282-10.609-.34zm-7.972.507c-1.697.528-4.104 1.955-7.221 4.28l-.378.284h14.702c.077-1.21.077-2.895 0-5.057-2.415-.015-4.83-.121-7.103.493z" fill="#FFF"/>
            </g>
        </g>
    </g>
</svg>
