<svg width="51" height="62" viewBox="0 0 51 62" xmlns="http://www.w3.org/2000/svg">
    <defs>
        <filter id="a">
            <feColorMatrix in="SourceGraphic" values="0 0 0 0 0.025531 0 0 0 0 0.575673 0 0 0 0 0.916136 0 0 0 1.000000 0"/>
        </filter>
        <filter id="b">
            <feColorMatrix in="SourceGraphic" values="0 0 0 0 1.000000 0 0 0 0 1.000000 0 0 0 0 1.000000 0 0 0 1.000000 0"/>
        </filter>
    </defs>
    <g transform="translate(-1355 -816)" filter="url(#a)" fill="none" fill-rule="evenodd">
        <g transform="translate(1330 806)" filter="url(#b)">
            <path d="M32.768 47.198c.113-1.118.467-3.3 1.062-6.544l.076-.411h9.1l.093.41c.727 3.245 1.16 5.427 1.298 6.545-1.391 1.493-3.524 2.216-6.396 2.166-2.35.05-4.095-.672-5.233-2.166zm9.142 6.95.006-.592.009-.087a.5.5 0 0 1 .24-.34l2.628-1.527.064-.028a.304.304 0 0 1 .392.303l-.014.323-.011.086a.5.5 0 0 1-.18.287l-2.451 1.913-.072.046a.423.423 0 0 1-.61-.383zm-9.839-2.27a.274.274 0 0 1 .378-.264l.055.03 2.083 1.48a.5.5 0 0 1 .2.309l.01.094.005.622a.371.371 0 0 1-.559.323l-.068-.052-1.937-1.848a.5.5 0 0 1-.142-.249l-.013-.096-.012-.35zm.317-26.562c.141-.566.362-.976.664-1.23.134-.114.4-.333.913-.378.315-.028 1.086-.044 2.314-.05H40.156c1.471.006 2.397.022 2.778.05.628.045.952.264 1.116.378.368.254.639.664.811 1.23H32.388zM39.521 56a8.202 8.202 0 0 0 5.17-1.83 6.112 6.112 0 0 0 2.265-4.741l.004-2.78 1.667-1.038a.79.79 0 0 0 .22-1.137.917.917 0 0 0-1.225-.238l-.66.41.019-18.181a4.886 4.886 0 0 0-1.114-3.11A3.717 3.717 0 0 0 42.997 22h-8.886a3.069 3.069 0 0 0-2.546 1.355 5.344 5.344 0 0 0-.91 2.989l.015 18.303-.494-.376a.716.716 0 0 0-1.049.203.896.896 0 0 0 .227 1.172l1.317 1.003.004 3.086a6.25 6.25 0 0 0 1.852 4.436A6.317 6.317 0 0 0 36.98 56l1.02-.001zM57.767 35.198c.114-1.118.468-3.3 1.063-6.544l.076-.411H68.006l.092.41c.728 3.245 1.16 5.427 1.3 6.545-1.393 1.494-3.525 2.216-6.398 2.167-2.35.049-4.094-.673-5.233-2.167zm9.143 6.95.006-.592.009-.087a.5.5 0 0 1 .24-.34l2.627-1.527.065-.028a.304.304 0 0 1 .391.303l-.013.323-.011.086a.5.5 0 0 1-.181.287l-2.45 1.913-.073.046a.423.423 0 0 1-.61-.383zm-9.839-2.27a.274.274 0 0 1 .377-.264l.056.03 2.082 1.48a.5.5 0 0 1 .2.309l.01.094.006.622a.371.371 0 0 1-.56.323l-.067-.052-1.937-1.848a.5.5 0 0 1-.142-.248l-.013-.097-.012-.35zm.317-26.561c.141-.567.362-.977.663-1.231.135-.114.4-.333.914-.378.315-.028 1.086-.044 2.313-.05h3.576l.302.001c1.471.005 2.397.021 2.778.049.628.045.952.264 1.116.378.368.254.638.664.811 1.23H57.388zM64.52 44a8.202 8.202 0 0 0 5.172-1.83 6.112 6.112 0 0 0 2.264-4.741l.004-2.78 1.667-1.038a.79.79 0 0 0 .22-1.137.917.917 0 0 0-1.225-.238l-.66.411.018-18.182a4.886 4.886 0 0 0-1.113-3.11A3.717 3.717 0 0 0 67.997 10h-8.886a3.069 3.069 0 0 0-2.546 1.355 5.344 5.344 0 0 0-.91 2.989l.015 18.303-.495-.375a.716.716 0 0 0-1.048.202.896.896 0 0 0 .226 1.173l1.318 1.002.004 3.087a6.25 6.25 0 0 0 1.852 4.435A6.317 6.317 0 0 0 61.98 44l1.02-.001z" fill="#FFF"/>
            <path stroke="#979797" stroke-linecap="square" d="M50.5 12v37M75 12v37M26 12v37"/>
            <g stroke="#FFF" stroke-width="1.5">
                <path d="M32.317 63.112c3.59-4.029 9.41-4.029 13 0"/>
                <path d="M34.09 65.101c2.61-2.93 6.844-2.93 9.455 0M35.863 67.09c1.632-1.83 4.277-1.83 5.909 0"/>
            </g>
            <path d="m36.5 18 2.116 2 1.884-2m-2-5.5v8" stroke="#FFF" stroke-width="1.5"/>
        </g>
    </g>
</svg>
