<svg width="33" height="60" viewBox="0 0 33 60" xmlns="http://www.w3.org/2000/svg">
    <defs>
        <filter id="a">
            <feColorMatrix in="SourceGraphic" values="0 0 0 0 0.025531 0 0 0 0 0.575673 0 0 0 0 0.916136 0 0 0 1.000000 0"/>
        </filter>
        <filter id="b">
            <feColorMatrix in="SourceGraphic" values="0 0 0 0 1.000000 0 0 0 0 1.000000 0 0 0 0 1.000000 0 0 0 1.000000 0"/>
        </filter>
    </defs>
    <g transform="translate(-1084 -816)" filter="url(#a)" fill="none" fill-rule="evenodd">
        <g transform="translate(1050 806)" filter="url(#b)">
            <g fill="#FFF">
                <path d="M51 46c.25.002.494.002.733.002l.545.001h.837l.202.001h1.344l.181.001h2.54l.136-.001h.518L59.145 46c2.202 2.154 4.004 4.85 5.406 8.084l1.199.002a1.25 1.25 0 1 1 0 2.5l-.308-.002c.252.997.472 2.286.549 3.848.033.986.028 3.502-.99 5.219L65 68.5a1.5 1.5 0 0 1-1.5 1.5h-2a1.5 1.5 0 0 1-1.5-1.5l.001-.69c-1.658.152-3.606.182-5.563.185h-.875l-1.302-.002h-.853l-.572.002c-.11.004-.222.003-.334.002l-.338.003-.001-.005-.57-.002h-.854l-1.302.002h-.875c-1.957-.003-3.905-.033-5.563-.185l.001.69a1.5 1.5 0 0 1-1.5 1.5h-2a1.5 1.5 0 0 1-1.5-1.5v-2.849c-1.02-1.717-1.024-4.233-.991-5.22.077-1.561.297-2.85.55-3.847l-.309.002a1.25 1.25 0 0 1 0-2.5l1.199-.002c1.402-3.235 3.204-5.93 5.406-8.084l1.11.003h.517l.136.001h1.028l.157.001h2.88l.202-.001h.837l.545-.002h.732L50 46h1zm11.505 10.184-.084.011-4.87 1.088a.5.5 0 0 0-.323.237l-.036.076-.515 1.382a.5.5 0 0 0 .555.667l.087-.023 5.094-1.885a.5.5 0 0 0 .252-.206l.038-.074.255-.627a.47.47 0 0 0-.37-.642l-.083-.004zm-24.01 0-.082.004a.47.47 0 0 0-.371.642l.255.627.038.074a.5.5 0 0 0 .252.206l5.094 1.885.087.023a.5.5 0 0 0 .555-.667l-.515-1.382-.036-.076a.5.5 0 0 0-.324-.237l-4.87-1.088-.083-.01zm11.747-7.931H49.04l-.202.001-1.704.001h-1.016l-1.345-.001h-.136l-.518-.001h-.302l-.807-.003c-1.377 1.217-2.695 3.163-3.955 5.835h22.892c-1.26-2.672-2.578-4.618-3.955-5.835l-.807.002-.302.001h-.518l-.136.001-1.345.001h-1.017l-1.703-.001h-.202l-.837-.001h-.882zM51 10v.001l.751.001h1.608l.089-.001.318-.001c.906.898 1.649 2.021 2.226 3.37l.487-.001a.52.52 0 0 1 0 1.042h-.12c.103.414.194.951.226 1.602.013.41.011 1.457-.407 2.173l-.002 1.314a.5.5 0 0 1-.5.5h-1.058a.5.5 0 0 1-.5-.5v-.412c-.683.063-1.485.075-2.29.077h-.6l-.296-.002v.004l-.377-.003h-.11l-.378.003v-.004l-.295.001h-.6c-.805 0-1.607-.013-2.29-.076v.412a.5.5 0 0 1-.5.5h-1.058a.5.5 0 0 1-.5-.5l-.002-1.314c-.418-.716-.42-1.762-.407-2.173.032-.65.123-1.188.227-1.603h-.121a.52.52 0 0 1 0-1.041h.487c.577-1.348 1.32-2.471 2.226-3.369l.318.001h.089l.604.001h1.004l.751-.001V10h1zm4.163 4.244-.052.005-1.845.417a.5.5 0 0 0-.324.239l-.035.076-.11.299a.27.27 0 0 0 .288.362l.06-.016 1.845-.69a.5.5 0 0 0 .251-.207l.038-.075.057-.141a.196.196 0 0 0-.123-.26l-.05-.009zm-9.326 0-.05.01a.196.196 0 0 0-.123.259l.057.141.038.075a.5.5 0 0 0 .25.207l1.846.69.06.016a.27.27 0 0 0 .288-.362l-.11-.3-.035-.075a.5.5 0 0 0-.324-.24l-1.845-.416-.052-.005zm4.455-3.305h-2.085l-.497-.002c-.567.508-1.11 1.318-1.629 2.431l4.419.001h4.419c-.519-1.114-1.062-1.924-1.629-2.432l-.497.002H50.159zM58.888 34 61 42H40l2.062-8h16.826zm-1.847-7 1.583 6H42.319l1.546-6h13.176zm-1.32-5 1.056 4H44.123l1.032-4H55.72z"/>
            </g>
        </g>
    </g>
</svg>
