<svg width="60" height="49" viewBox="0 0 60 49" xmlns="http://www.w3.org/2000/svg">
    <defs>
        <filter id="a">
            <feColorMatrix in="SourceGraphic" values="0 0 0 0 0.025531 0 0 0 0 0.575673 0 0 0 0 0.916136 0 0 0 1.000000 0"/>
        </filter>
        <filter id="b">
            <feColorMatrix in="SourceGraphic" values="0 0 0 0 1.000000 0 0 0 0 1.000000 0 0 0 0 1.000000 0 0 0 1.000000 0"/>
        </filter>
    </defs>
    <g transform="translate(-930 -821)" filter="url(#a)" fill="none" fill-rule="evenodd">
        <g transform="translate(910 806)" filter="url(#b)">
            <path d="M45.198 40.233c-1.118-.113-3.3-.467-6.544-1.062l-.411-.076V29.994l.41-.092c3.245-.728 5.427-1.16 6.545-1.299 1.494 1.392 2.216 3.524 2.167 6.397.049 2.35-.673 4.094-2.167 5.233zm6.95-9.143-.592-.006-.087-.008a.5.5 0 0 1-.34-.24l-1.527-2.628-.028-.064a.304.304 0 0 1 .303-.392l.323.013.086.012a.5.5 0 0 1 .287.18l1.913 2.45.046.073a.423.423 0 0 1-.383.61zm-2.27 9.84a.274.274 0 0 1-.264-.378l.03-.055 1.48-2.083a.5.5 0 0 1 .309-.2l.094-.01.622-.005a.371.371 0 0 1 .323.558l-.052.069-1.848 1.937a.5.5 0 0 1-.248.142l-.097.012-.35.012zm-26.561-.318c-.567-.14-.977-.362-1.231-.663a1.512 1.512 0 0 1-.378-.913c-.028-.315-.044-1.086-.05-2.314v-3.576l.001-.301c.005-1.472.021-2.398.049-2.778.045-.628.264-.952.378-1.117.254-.368.664-.638 1.23-.81v12.472zM54 33.48a8.202 8.202 0 0 0-1.83-5.171 6.112 6.112 0 0 0-4.741-2.265l-2.78-.003-1.038-1.667a.79.79 0 0 0-1.137-.22.917.917 0 0 0-.238 1.224l.411.66-18.182-.018a4.886 4.886 0 0 0-3.11 1.113A3.717 3.717 0 0 0 20 30.003v8.887c0 1.021.508 1.975 1.355 2.546a5.344 5.344 0 0 0 2.989.91l18.303-.016-.375.495a.716.716 0 0 0 .202 1.048.896.896 0 0 0 1.173-.226l1.002-1.318 3.087-.003a6.25 6.25 0 0 0 4.435-1.852A6.317 6.317 0 0 0 54 36.02L53.999 35zM75.086 44.348a.798.798 0 0 0-.005.008l-.998 1.5-2.808.003a5.958 5.958 0 0 0-4.498 2.058A7.282 7.282 0 0 0 65 52.692L65.001 54 65 55.308a7.282 7.282 0 0 0 1.777 4.775 5.958 5.958 0 0 0 4.226 2.051l.272.007 2.808.003.998 1.5.005.008a.799.799 0 0 0 1.11.208.82.82 0 0 0 .275-1.034l-.055-.096-.388-.584 3.972.003v-3.534l-.093.02c-3.151.66-5.27 1.054-6.357 1.18-1.388-1.21-2.09-3.036-2.106-5.478l.002-.337c-.048-2.611.653-4.55 2.104-5.815 1.087.126 3.206.52 6.357 1.18l.093.019V45.85l-3.972.004.388-.584a.82.82 0 0 0-.22-1.13.799.799 0 0 0-1.11.208zm-8.288 13.206.577.006.085.008a.5.5 0 0 1 .285.16l.05.068 1.464 2.357.028.06a.286.286 0 0 1-.226.372l-.056.004-.316-.013-.083-.01a.5.5 0 0 1-.222-.109l-.06-.06-1.832-2.197-.045-.066a.394.394 0 0 1 .351-.58zm2.207-10.143a.286.286 0 0 1 .282.377l-.028.06-1.464 2.356a.5.5 0 0 1-.335.228l-.085.008-.577.006a.394.394 0 0 1-.35-.58l.044-.066 1.833-2.197a.5.5 0 0 1 .28-.17l.084-.01.316-.012z" fill="#FFF"/>
            <path d="M54 26.947 63.97 17c4.947 4.272 7.438 10.272 7.473 18-2.556.003-7.586.003-15.09 0M53.134 46.51l5.42 5.491c3.297-2.847 4.958-6.847 4.981-11.998-1.703-.002-4.2-.002-7.49 0" stroke="#FFF" stroke-width="1.5"/>
        </g>
    </g>
</svg>
