<svg width="54" height="57" viewBox="0 0 54 57" xmlns="http://www.w3.org/2000/svg">
    <defs>
        <filter id="a">
            <feColorMatrix in="SourceGraphic" values="0 0 0 0 1.000000 0 0 0 0 1.000000 0 0 0 0 1.000000 0 0 0 1.000000 0"/>
        </filter>
    </defs>
    <g transform="translate(-23 -11)" filter="url(#a)" fill="none" fill-rule="evenodd">
        <path d="M55.507 64.651c.95-.1 2.801-.413 5.552-.938l.38-.073v-7.736l-.38-.082c-2.75-.591-4.601-.943-5.552-1.056-1.273 1.139-1.89 2.883-1.848 5.233-.041 2.09.575 3.64 1.848 4.652zm-5.928-7.85.47-.005.085-.008a.5.5 0 0 0 .337-.233l1.273-2.1.027-.063a.254.254 0 0 0-.255-.322l-.247.01-.084.01a.5.5 0 0 0-.283.173l-1.599 1.965-.044.068a.351.351 0 0 0 .32.505zm1.937 8.47a.24.24 0 0 0 .235-.317l-.029-.057-1.248-1.832a.5.5 0 0 0-.312-.208l-.097-.01-.486-.004a.325.325 0 0 0-.287.484l.044.061 1.567 1.71a.5.5 0 0 0 .271.154l.08.009.262.01zm22.655-.282c.483-.126.833-.322 1.05-.59.097-.12.284-.355.322-.812.023-.27.037-.914.042-1.935v-.242l.001-1.102v-2.031c-.005-1.227-.019-1.999-.043-2.314-.038-.514-.225-.778-.322-.913-.217-.301-.567-.522-1.05-.663v10.602zM48 58.796a6.609 6.609 0 0 1 1.56-4.271 5.222 5.222 0 0 1 3.984-1.852l2.431-.003.88-1.355.014-.02a.691.691 0 0 1 .962-.17c.327.23.414.677.197 1.012l-.345.531 15.533-.015c.954-.001 1.88.32 2.628.91A3.038 3.038 0 0 1 77 55.948v7.55c0 .885-.431 1.714-1.156 2.222a4.464 4.464 0 0 1-2.568.81l-15.593-.014.327.448a.642.642 0 0 1-.179.924.744.744 0 0 1-.994-.193l-.862-1.18-2.584-.003a5.292 5.292 0 0 1-3.83-1.647A5.67 5.67 0 0 1 48 60.953v-.954zM33.349 18.507c.1.95.413 2.801.938 5.552l.073.381h7.736l.082-.38c.591-2.752.943-4.602 1.056-5.553-1.139-1.273-2.883-1.89-5.233-1.847-2.09-.042-3.64.574-4.652 1.847zm7.85-5.928.005.47.008.085a.5.5 0 0 0 .233.337l2.1 1.273.063.027a.254.254 0 0 0 .322-.255l-.01-.246-.01-.085a.5.5 0 0 0-.173-.283l-1.965-1.599-.068-.044a.351.351 0 0 0-.505.32zm-8.47 1.937a.24.24 0 0 0 .317.235l.057-.029 1.832-1.248a.5.5 0 0 0 .208-.312l.01-.097.004-.486a.325.325 0 0 0-.484-.287l-.061.044-1.71 1.567a.5.5 0 0 0-.154.271l-.009.08-.01.262zm.282 22.655c.126.483.322.833.59 1.05.12.097.355.284.812.322.27.023.914.037 1.935.042h.242l1.102.001h2.031c1.227-.005 1.999-.019 2.314-.043.514-.038.778-.225.913-.322.301-.217.522-.567.663-1.05H33.011zM39.204 11a6.609 6.609 0 0 1 4.271 1.56 5.222 5.222 0 0 1 1.852 3.984l.003 2.431 1.355.88.02.014c.313.219.389.65.17.962a.742.742 0 0 1-1.012.197l-.531-.345.015 15.533c.001.954-.32 1.88-.91 2.628A3.038 3.038 0 0 1 42.052 40h-7.55a2.715 2.715 0 0 1-2.222-1.156 4.464 4.464 0 0 1-.81-2.567l.014-15.594-.448.327a.642.642 0 0 1-.924-.179.744.744 0 0 1 .193-.994l1.18-.862.003-2.584a5.292 5.292 0 0 1 1.647-3.83A5.67 5.67 0 0 1 37.047 11h.954z" fill="#FFF"/>
        <g stroke="#FFF" stroke-width="1.5">
            <path d="M41 51c6.075 0 11-4.925 11-11"/>
            <path d="M41 48a8 8 0 0 0 8-8M41 45a5 5 0 0 0 5-5"/>
        </g>
        <g stroke="#FFF" stroke-width="1.5">
            <path d="M35 51c-6.075 0-11-4.925-11-11"/>
            <path d="M35 48a8 8 0 0 1-8-8M35 45a5 5 0 0 1-5-5"/>
        </g>
    </g>
</svg>
